<svg width="24" height="24" viewBox="0 0 24 24" fill="none" xmlns="http://www.w3.org/2000/svg">
<path d="M12 3.5C7.31308 3.5 3.5 7.31308 3.5 12C3.5 16.6869 7.31308 20.5 12 20.5C16.6869 20.5 20.5 16.6869 20.5 12C20.5 7.31308 16.6869 3.5 12 3.5ZM12 2C17.5229 2 22 6.47715 22 12C22 17.5229 17.5229 22 12 22C6.47715 22 2 17.5229 2 12C2 6.47715 6.47715 2 12 2Z" fill="black"/>
<path fill-rule="evenodd" clip-rule="evenodd" d="M22 12.75H2V11.25H22V12.75Z" fill="black"/>
<path d="M12 4.39222C10.4402 6.61477 9.56367 9.25893 9.50036 12C9.56367 14.7411 10.4402 17.3852 12 19.6078C13.5598 17.3852 14.4363 14.7411 14.4996 12C14.4363 9.25893 13.5598 6.61477 12 4.39222ZM12 2C14.5013 4.73835 15.9228 8.29203 16 12C15.9228 15.708 14.5013 19.2617 12 22C9.49872 19.2617 8.07725 15.708 8 12C8.07725 8.29203 9.49872 4.73835 12 2Z" fill="black"/>
</svg>
