<svg width="48" height="48" viewBox="0 0 48 48" fill="none" xmlns="http://www.w3.org/2000/svg">
<circle cx="24" cy="24" r="21.5" stroke="white"/>
<mask id="path-2-inside-1_170_10553" fill="white">
<path fill-rule="evenodd" clip-rule="evenodd" d="M19.336 14.2526C19.7487 13.8857 20.3808 13.9229 20.7477 14.3356L31.7477 23.3356C32.0845 23.7145 32.0845 24.2855 31.7477 24.6644L20.7477 33.6644C20.3808 34.0772 19.7487 34.1143 19.336 33.7474C19.1124 33.5487 18.9991 33.2723 19.0003 32.9951C19.0277 26.9987 19.0002 21.0014 19.0003 15.005C18.9991 14.7277 19.1124 14.4513 19.336 14.2526Z"/>
<path fill-rule="evenodd" clip-rule="evenodd" d="M19 15L19.0003 15.005C19.0002 21.0014 19.0277 26.9987 19.0003 32.9951V33L19 15Z"/>
</mask>
<path fill-rule="evenodd" clip-rule="evenodd" d="M19.336 14.2526C19.7487 13.8857 20.3808 13.9229 20.7477 14.3356L31.7477 23.3356C32.0845 23.7145 32.0845 24.2855 31.7477 24.6644L20.7477 33.6644C20.3808 34.0772 19.7487 34.1143 19.336 33.7474C19.1124 33.5487 18.9991 33.2723 19.0003 32.9951C19.0277 26.9987 19.0002 21.0014 19.0003 15.005C18.9991 14.7277 19.1124 14.4513 19.336 14.2526Z" fill="white"/>
<path fill-rule="evenodd" clip-rule="evenodd" d="M19 15L19.0003 15.005C19.0002 21.0014 19.0277 26.9987 19.0003 32.9951V33L19 15Z" fill="white"/>
<path d="M19.0003 15.005L19.5003 15.0027C19.4991 14.727 19.2749 14.5043 18.9992 14.505C18.7235 14.5056 18.5003 14.7293 18.5003 15.005L19.0003 15.005ZM19.0003 32.9951H18.5003C18.5003 33.2708 18.7235 33.4944 18.9992 33.4951C19.2749 33.4957 19.4991 33.273 19.5003 32.9973L19.0003 32.9951ZM18.5003 15.0072C18.5277 21.0024 18.5003 26.9953 18.5003 32.9951H19.5003C19.5003 27.0018 19.5277 21.0005 19.5003 15.0027L18.5003 15.0072ZM18.5003 15.005C18.5002 21.0047 18.5277 26.9977 18.5003 32.9928L19.5003 32.9973C19.5277 26.9996 19.5002 20.9982 19.5003 15.005L18.5003 15.005ZM19 15L19.9979 14.9349C19.9627 14.3964 19.5067 13.9829 18.9674 14.0005C18.4281 14.0181 18 14.4604 18 15L19 15ZM19.0003 33L18.0003 33C18.0003 33.5523 18.4481 34 19.0003 34C19.5526 34 20.0003 33.5523 20.0003 33H19.0003ZM20.7477 14.3356L20.0003 15C20.0354 15.0395 20.0736 15.0761 20.1145 15.1096L20.7477 14.3356ZM19.336 14.2526L18.6716 13.5052L18.6716 13.5052L19.336 14.2526ZM31.7477 23.3356L32.4951 22.6713C32.46 22.6318 32.4219 22.5951 32.381 22.5617L31.7477 23.3356ZM31.7477 24.6644L32.381 25.4383C32.4219 25.4049 32.46 25.3682 32.4951 25.3287L31.7477 24.6644ZM20.7477 33.6644L20.1145 32.8904C20.0736 32.9239 20.0354 32.9605 20.0003 33L20.7477 33.6644ZM19.336 33.7474L18.6716 34.4948L18.6716 34.4948L19.336 33.7474ZM19.0003 15.005L18.0024 15.0701C18.0377 15.6094 18.495 16.0232 19.0352 16.0044C19.5753 15.9855 20.0028 15.5409 20.0003 15.0004L19.0003 15.005ZM19.0003 32.9951H20.0003C20.0003 32.4437 19.554 31.9963 19.0026 31.9951C18.4512 31.9938 18.0029 32.4391 18.0003 32.9905L19.0003 32.9951ZM21.4951 13.6713C20.7613 12.8457 19.4972 12.7714 18.6716 13.5052L20.0003 15H20.0003L21.4951 13.6713ZM32.381 22.5617L21.381 13.5617L20.1145 15.1096L31.1145 24.1096L32.381 22.5617ZM32.4951 25.3287C33.1687 24.571 33.1687 23.4291 32.4951 22.6713L31.0003 24L32.4951 25.3287ZM21.381 34.4383L32.381 25.4383L31.1145 23.8904L20.1145 32.8904L21.381 34.4383ZM18.6716 34.4948C19.4972 35.2287 20.7613 35.1543 21.4951 34.3287L20.0003 33H20.0003L18.6716 34.4948ZM18.0021 15.0651L18.0024 15.0701L19.9982 14.9398L19.9979 14.9349L18.0021 15.0651ZM18.0003 32.9951V33H20.0003V32.9951H18.0003ZM18.0003 32.9905C17.9978 33.5428 18.2245 34.0974 18.6716 34.4948L20.0003 33L20.0003 32.9996L18.0003 32.9905ZM18.6716 13.5052C18.2245 13.9027 17.9978 14.4572 18.0003 15.0095L20.0003 15.0004L20.0003 15L18.6716 13.5052ZM18 15L18.0003 33L20.0003 33L20 15L18 15Z" fill="white" mask="url(#path-2-inside-1_170_10553)"/>
</svg>
