<svg width="32" height="32" viewBox="0 0 32 32" fill="none" xmlns="http://www.w3.org/2000/svg">
<path fill-rule="evenodd" clip-rule="evenodd" d="M16 3.36719C9.02337 3.36719 3.36768 9.02288 3.36768 15.9995C3.36768 22.9762 9.02337 28.6319 16 28.6319C22.9767 28.6319 28.6324 22.9762 28.6324 15.9995C28.6324 9.02288 22.9767 3.36719 16 3.36719ZM1.86768 15.9995C1.86768 8.19446 8.19495 1.86719 16 1.86719C23.8051 1.86719 30.1324 8.19446 30.1324 15.9995C30.1324 23.8046 23.8051 30.1319 16 30.1319C8.19495 30.1319 1.86768 23.8046 1.86768 15.9995Z" fill="white" fill-opacity="0.7"/>
<path fill-rule="evenodd" clip-rule="evenodd" d="M17.0317 8.88178C17.3246 8.58889 17.7995 8.58889 18.0924 8.88178L24.6777 15.4671C24.78 15.5456 24.8624 15.6507 24.9139 15.775C24.953 15.8693 24.9716 15.9684 24.971 16.0666C24.9716 16.1647 24.953 16.2638 24.9139 16.3581C24.8624 16.4825 24.78 16.5876 24.6777 16.6661L18.0924 23.2514C17.7995 23.5443 17.3246 23.5443 17.0317 23.2514C16.7388 22.9585 16.7388 22.4836 17.0317 22.1907L22.4013 16.8211H8.58804C8.17383 16.8211 7.83804 16.4853 7.83804 16.0711C7.83804 16.0696 7.83805 16.0681 7.83806 16.0666C7.83805 16.0651 7.83804 16.0636 7.83804 16.0621C7.83804 15.6478 8.17383 15.3121 8.58804 15.3121H22.4013L17.0317 9.94244C16.7388 9.64955 16.7388 9.17467 17.0317 8.88178Z" fill="white" fill-opacity="0.7"/>
</svg>
