<svg width="32" height="32" viewBox="0 0 32 32" fill="none" xmlns="http://www.w3.org/2000/svg">
    <path fill-rule="evenodd" clip-rule="evenodd" d="M16.1324 3.36768C9.1557 3.36768 3.5 9.02337 3.5 16C3.5 22.9767 9.1557 28.6324 16.1324 28.6324C23.109 28.6324 28.7647 22.9767 28.7647 16C28.7647 9.02337 23.109 3.36768 16.1324 3.36768ZM2 16C2 8.19495 8.32727 1.86768 16.1324 1.86768C23.9374 1.86768 30.2647 8.19495 30.2647 16C30.2647 23.8051 23.9374 30.1324 16.1324 30.1324C8.32727 30.1324 2 23.8051 2 16Z" fill="black"/>
    <path fill-rule="evenodd" clip-rule="evenodd" d="M17.1639 8.88154C17.4568 8.58864 17.9316 8.58864 18.2245 8.88154L24.8098 15.4669C24.9121 15.5454 24.9946 15.6505 25.0461 15.7748C25.0852 15.8691 25.1038 15.9682 25.1032 16.0663C25.1038 16.1645 25.0852 16.2636 25.0461 16.3579C24.9946 16.4822 24.9121 16.5873 24.8098 16.6658L18.2245 23.2512C17.9316 23.544 17.4568 23.544 17.1639 23.2512C16.871 22.9583 16.871 22.4834 17.1639 22.1905L22.5335 16.8209H8.72021C8.306 16.8209 7.97021 16.4851 7.97021 16.0709L7.97023 16.0663L7.97021 16.0618C7.97021 15.6476 8.306 15.3118 8.72021 15.3118H22.5335L17.1639 9.9422C16.871 9.6493 16.871 9.17443 17.1639 8.88154Z" fill="black"/>
    </svg>
    