<svg width="136" height="23" viewBox="0 0 136 23" fill="none" xmlns="http://www.w3.org/2000/svg">
<path d="M135.543 12.8486C135.467 12.7388 134.275 10.9829 132.814 8.82964C134.366 8.2355 135.52 6.59311 135.52 4.71987C135.52 2.49848 133.628 0.511719 131.452 0.511719H126.65C125.938 0.511719 125.325 1.13991 125.325 1.83623V14.1731H127.32C128.035 14.1731 128.644 13.5449 128.644 12.8486V9.07183H129.567C131.391 11.7625 133.03 14.1731 133.03 14.1731H135.119C135.83 14.1731 136.016 13.5449 135.543 12.8524M128.644 6.89585V3.21372H131.062C131.819 3.21372 132.519 3.86083 132.519 4.73501C132.519 5.60919 131.811 6.35091 131.062 6.35091C130.313 6.35091 130.135 6.36226 129.893 6.36226C128.822 6.36226 128.644 6.8845 128.644 6.8845" fill="white"/>
<path d="M121.658 3.22507C122.377 3.22507 122.983 2.62336 122.983 1.90056V0.511719H115.653C114.937 0.511719 114.328 1.13991 114.328 1.83623V14.1731H121.658C122.377 14.1731 122.983 13.5449 122.983 12.8259V11.4484C122.983 11.4484 119.342 11.4484 118.926 11.4484C117.855 11.4484 117.677 11.9706 117.677 11.9706V8.64042C117.677 8.64042 121.223 8.64042 121.344 8.64042C122.063 8.64042 122.669 8.03872 122.669 7.31591V5.91572C122.669 5.91572 119.342 5.91572 118.926 5.91572C117.855 5.91572 117.677 6.43795 117.677 6.43795V3.22507C117.677 3.22507 121.412 3.22507 121.662 3.22507" fill="white"/>
<path d="M103.603 0.511719C102.888 0.511719 102.278 1.27993 102.278 1.97625V3.2175C102.278 3.2175 103.902 3.2175 105.836 3.2175V14.1731H107.879C108.594 14.1731 109.204 13.5449 109.204 12.8486C109.204 12.6291 109.192 6.46823 109.192 3.2175C110.46 3.2175 111.364 3.2175 111.444 3.2175C112.163 3.2175 112.768 2.6158 112.768 1.89299V0.511719H103.603Z" fill="white"/>
<path d="M92.2497 0.511719H90.9214C90.2592 0.511719 89.6953 1.13991 89.6953 1.83623V14.1731H91.8221C92.4843 14.1731 93.0482 13.526 93.0482 12.8486V6.38497L98.4484 14.1731H99.5951C100.257 14.1731 100.821 13.5449 100.821 12.8486V0.511719H98.4863C97.8278 0.511719 97.438 1.18154 97.438 1.83623V8.06899L92.2497 0.511719Z" fill="white"/>
<path d="M86.0255 3.22507C86.7445 3.22507 87.35 2.62336 87.35 1.90056V0.511719H80.0198C79.3046 0.511719 78.6953 1.13991 78.6953 1.83623V14.1731H86.0255C86.7445 14.1731 87.35 13.5449 87.35 12.8259V11.4484C87.35 11.4484 83.7095 11.4484 83.2933 11.4484C82.2223 11.4484 82.0444 11.9706 82.0444 11.9706V8.64042C82.0444 8.64042 85.5903 8.64042 85.7114 8.64042C86.4304 8.64042 87.0359 8.03872 87.0359 7.31591V5.91572C87.0359 5.91572 83.7095 5.91572 83.2933 5.91572C82.2223 5.91572 82.0444 6.43795 82.0444 6.43795V3.22507C82.0444 3.22507 85.7795 3.22507 86.0293 3.22507" fill="white"/>
<path d="M76.7003 14.4144C76.7003 14.4144 74.1951 18.0095 69.3247 18.0095C64.4542 18.0095 60.5186 14.1647 60.5186 9.06343C60.5186 3.96218 64.3029 0 69.3247 0C74.3464 0 76.6359 3.5951 76.6359 3.5951C76.6359 3.5951 75.2963 5.02935 74.0134 5.02935C73.3852 5.02935 72.916 4.73796 72.3748 4.40494C71.6482 3.95839 70.827 3.44751 69.3247 3.44751C66.4675 3.44751 64.1477 5.96786 64.1477 9.06343C64.1477 12.159 66.4713 14.562 69.3247 14.562C71.02 14.562 71.8147 14.0776 72.5186 13.6462C73.0181 13.3397 73.4912 13.0521 74.1724 13.0521C75.618 13.0521 76.7003 14.4107 76.7003 14.4107V14.4144Z" fill="white"/>
<path d="M52.3299 0.515625C51.4444 0.515625 50.6875 1.29898 50.6875 2.15802V17.4807H52.6591C53.5447 17.4807 54.3015 16.6973 54.3015 15.8383V0.515625H52.3299Z" fill="white"/>
<path d="M39.9245 0.515625C39.0276 0.515625 38.5697 0.928115 38.267 1.7266C37.9642 2.52509 31.3984 17.4845 31.3984 17.4845H33.8393C34.687 17.4845 35.319 17.1136 35.565 16.3946V16.3795H35.5725L40.1629 5.87421L42.2026 10.5138H41.0522C39.4288 10.5138 39.0011 11.6264 38.7892 12.2016L38.2405 13.5564H43.5309L45.2339 17.492H46.5773C48.0381 17.492 48.5679 16.3378 48.3143 15.7778C48.0797 15.2555 41.6691 0.526978 41.6691 0.526978H39.9094L39.9245 0.515625Z" fill="white"/>
<path d="M19.6552 0.515625C18.3383 0.515625 17.4565 1.32547 17.4565 2.53266V3.74743H20.5824C20.5824 3.74743 20.6883 14.0559 20.5673 15.1382C20.4499 16.2167 20.1737 17.9764 18.2437 18.8998C16.5786 19.6945 16.5445 20.4476 16.4348 21.1174C16.2985 21.984 16.4575 22.0976 17.0933 21.9424C19.5758 21.3331 22.2172 20.3378 23.5569 17.8818C24.2834 16.5498 24.5711 15.1079 24.5711 12.9168V3.74743C25.8956 3.73229 26.8492 2.88839 26.8492 1.73039V0.515625H19.659H19.6552Z" fill="white"/>
<path d="M16.1817 14.4144C16.1817 14.4144 13.6765 18.0095 8.80609 18.0095C3.93568 18.0095 0 14.1647 0 9.06343C0 3.96218 3.78431 0 8.80609 0C13.8279 0 16.1174 3.5951 16.1174 3.5951C16.1174 3.5951 14.7777 5.02935 13.4949 5.02935C12.8667 5.02935 12.3974 4.73796 11.8562 4.40494C11.1297 3.95839 10.3085 3.44751 8.80609 3.44751C5.94894 3.44751 3.62916 5.96786 3.62916 9.06343C3.62916 12.159 5.95272 14.562 8.80609 14.562C10.5015 14.562 11.2962 14.0776 12.0001 13.6462C12.4996 13.3397 12.9726 13.0521 13.6538 13.0521C15.0994 13.0521 16.1817 14.4107 16.1817 14.4107V14.4144Z" fill="white"/>
</svg>
