<?xml version="1.0" encoding="utf-8"?>
<!-- Generator: Adobe Illustrator 23.1.0, SVG Export Plug-In . SVG Version: 6.00 Build 0)  -->
<svg version="1.1" id="Layer_1" xmlns="http://www.w3.org/2000/svg" xmlns:xlink="http://www.w3.org/1999/xlink" x="0px" y="0px"
	 viewBox="0 0 136 23" style="enable-background:new 0 0 136 23;" xml:space="preserve">
<style type="text/css">
	.st0{fill:#FFFFFF;}
</style>
<path class="st0" d="M-189.4-140.1c-0.2-0.6-3.4-9.7-7.3-20.8c4.1-3.1,7.2-11.6,7.2-21.3c0-11.5-5-21.8-10.9-21.8h-12.8
	c-1.9,0-3.5,3.3-3.5,6.9v63.9h5.3c1.9,0,3.5-3.3,3.5-6.9v-19.6h2.5c4.9,13.9,9.2,26.4,9.2,26.4h5.6
	C-188.7-133.2-188.2-136.5-189.4-140.1 M-207.8-170.9V-190h6.5c2,0,3.9,3.3,3.9,7.9s-1.9,8.4-3.9,8.4c-2,0-2.5,0.1-3.1,0.1
	C-207.4-173.7-207.8-171-207.8-170.9"/>
<path class="st0" d="M-226.5-189.9c1.9,0,3.5-3.1,3.5-6.9v-7.2h-19.6c-1.9,0-3.5,3.3-3.5,6.9v63.9h19.6c1.9,0,3.5-3.3,3.5-7v-7.1
	c0,0-9.7,0-10.8,0c-2.9,0-3.3,2.7-3.3,2.7v-17.2c0,0,9.5,0,9.8,0c1.9,0,3.5-3.1,3.5-6.9v-7.2c0,0-8.9,0-10,0c-2.9,0-3.3,2.7-3.3,2.7
	v-16.6C-237.1-189.9-227.1-189.9-226.5-189.9"/>
<path class="st0" d="M-274.6-204c-1.9,0-3.5,4-3.5,7.6v6.4c0,0,4.3,0,9.5,0v56.7h5.5c1.9,0,3.5-3.3,3.5-6.9c0-1.1,0-33,0-49.9
	c3.4,0,5.8,0,6,0c1.9,0,3.5-3.1,3.5-6.9v-7.2H-274.6z"/>
<path class="st0" d="M-304.9-204h-3.5c-1.8,0-3.3,3.3-3.3,6.9v63.9h5.7c1.8,0,3.3-3.3,3.3-6.9v-33.5l14.4,40.3h3.1
	c1.8,0,3.3-3.3,3.3-6.9V-204h-6.2c-1.8,0-2.8,3.5-2.8,6.9v32.3L-304.9-204z"/>
<path class="st0" d="M-321.5-189.9c1.9,0,3.5-3.1,3.5-6.9v-7.2h-19.6c-1.9,0-3.5,3.3-3.5,6.9v63.9h19.6c1.9,0,3.5-3.3,3.5-7v-7.1
	c0,0-9.7,0-10.8,0c-2.9,0-3.3,2.7-3.3,2.7v-17.2c0,0,9.5,0,9.8,0c1.9,0,3.5-3.1,3.5-6.9v-7.2c0,0-8.9,0-10,0c-2.9,0-3.3,2.7-3.3,2.7
	v-16.6C-332.2-189.9-322.2-189.9-321.5-189.9"/>
<path class="st0" d="M-346.4-132c0,0-6.7,18.6-19.7,18.6c-13,0-23.5-19.9-23.5-46.3c0-26.4,10.1-46.9,23.5-46.9
	c13.4,0,19.5,18.6,19.5,18.6s-3.6,7.4-7,7.4c-1.7,0-2.9-1.5-4.4-3.2c-1.9-2.3-4.1-5-8.1-5c-7.6,0-13.8,13-13.8,29.1
	s6.2,28.5,13.8,28.5c4.5,0,6.6-2.5,8.5-4.7c1.3-1.6,2.6-3.1,4.4-3.1C-349.3-139-346.4-132-346.4-132L-346.4-132z"/>
<path class="st0" d="M-411.4-203.9c-2.4,0-4.4,4.1-4.4,8.5v79.3h5.3c2.4,0,4.4-4.1,4.4-8.5v-79.3H-411.4z"/>
<path class="st0" d="M-444.5-203.9c-2.4,0-3.6,2.1-4.4,6.3c-0.8,4.1-18.3,81.6-18.3,81.6h6.5c2.3,0,3.9-1.9,4.6-5.6v-0.1h0
	l12.2-54.4l5.4,24h-3.1c-4.3,0-5.5,5.8-6,8.7l-1.5,7h14.1l4.5,20.4h3.6c3.9,0,5.3-6,4.6-8.9c-0.6-2.7-17.7-78.9-17.7-78.9
	L-444.5-203.9L-444.5-203.9z"/>
<path class="st0" d="M-498.6-203.9c-3.5,0-5.9,4.2-5.9,10.4v6.3h8.3c0,0,0.3,53.4,0,59c-0.3,5.6-1.1,14.7-6.2,19.5
	c-4.4,4.1-4.5,8-4.8,11.5c-0.4,4.5,0.1,5.1,1.8,4.3c6.6-3.2,13.7-8.3,17.2-21c1.9-6.9,2.7-14.4,2.7-25.7v-47.5
	c3.5-0.1,6.1-4.4,6.1-10.4v-6.3H-498.6L-498.6-203.9z"/>
<path class="st0" d="M-507.9-132c0,0-6.7,18.6-19.7,18.6s-23.5-19.9-23.5-46.3c0-26.4,10.1-46.9,23.5-46.9S-508-188-508-188
	s-3.6,7.4-7,7.4c-1.7,0-2.9-1.5-4.4-3.2c-1.9-2.3-4.1-5-8.1-5c-7.6,0-13.8,13-13.8,29.1s6.2,28.5,13.8,28.5c4.5,0,6.6-2.5,8.5-4.7
	c1.3-1.6,2.6-3.1,4.4-3.1C-510.8-139-507.9-132-507.9-132L-507.9-132z"/>
</svg>
