<svg width="32" height="32" viewBox="0 0 32 32" fill="none" xmlns="http://www.w3.org/2000/svg">
    <path fill-rule="evenodd" clip-rule="evenodd"
        d="M16.1324 3.36768C9.1557 3.36768 3.5 9.02337 3.5 16C3.5 22.9767 9.1557 28.6324 16.1324 28.6324C23.109 28.6324 28.7647 22.9767 28.7647 16C28.7647 9.02337 23.109 3.36768 16.1324 3.36768ZM2 16C2 8.19495 8.32727 1.86768 16.1324 1.86768C23.9374 1.86768 30.2647 8.19495 30.2647 16C30.2647 23.8051 23.9374 30.1324 16.1324 30.1324C8.32727 30.1324 2 23.8051 2 16Z"
        fill="url(#paint0_linear_1807_44960)" />
    <path fill-rule="evenodd" clip-rule="evenodd"
        d="M17.1644 8.88178C17.4572 8.58889 17.9321 8.58889 18.225 8.88178L24.8103 15.4671C24.9126 15.5456 24.9951 15.6507 25.0466 15.775C25.0857 15.8693 25.1043 15.9684 25.1037 16.0666C25.1043 16.1647 25.0857 16.2638 25.0466 16.3581C24.9951 16.4825 24.9126 16.5876 24.8103 16.6661L18.225 23.2514C17.9321 23.5443 17.4572 23.5443 17.1644 23.2514C16.8715 22.9585 16.8715 22.4836 17.1644 22.1907L22.534 16.8211H8.7207C8.30649 16.8211 7.9707 16.4853 7.9707 16.0711L7.97072 16.0666L7.9707 16.0621C7.9707 15.6478 8.30649 15.3121 8.7207 15.3121H22.534L17.1644 9.94244C16.8715 9.64955 16.8715 9.17467 17.1644 8.88178Z"
        fill="url(#paint1_linear_1807_44960)" />
    <defs>
        <linearGradient id="paint0_linear_1807_44960" x1="30.2647" y1="6.89879" x2="3.05993"
            y2="25.3627" gradientUnits="userSpaceOnUse">
            <stop stop-color="#F32FD9" />
            <stop offset="1" stop-color="#8FA1FF" />
        </linearGradient>
        <linearGradient id="paint1_linear_1807_44960" x1="25.1037" y1="11.2981" x2="10.2038"
            y2="22.9977" gradientUnits="userSpaceOnUse">
            <stop stop-color="#F32FD9" />
            <stop offset="1" stop-color="#8FA1FF" />
        </linearGradient>
    </defs>
</svg>    
