<svg width="24" height="24" viewBox="0 0 24 24" fill="none" xmlns="http://www.w3.org/2000/svg">
<path fill-rule="evenodd" clip-rule="evenodd" d="M2 4.25C2 3.83579 2.33579 3.5 2.75 3.5L21.25 3.5C21.6642 3.5 22 3.83579 22 4.25C22 4.66421 21.6642 5 21.25 5L2.75 5C2.33579 5 2 4.66421 2 4.25Z" fill="black"/>
<path fill-rule="evenodd" clip-rule="evenodd" d="M2 12.25C2 11.8358 2.33579 11.5 2.75 11.5L21.25 11.5C21.6642 11.5 22 11.8358 22 12.25C22 12.6642 21.6642 13 21.25 13L2.75 13C2.33579 13 2 12.6642 2 12.25Z" fill="black"/>
<path fill-rule="evenodd" clip-rule="evenodd" d="M2 20.25C2 19.8358 2.33579 19.5 2.75 19.5L21.25 19.5C21.6642 19.5 22 19.8358 22 20.25C22 20.6642 21.6642 21 21.25 21L2.75 21C2.33579 21 2 20.6642 2 20.25Z" fill="black"/>
</svg>
