<svg width="136" height="22" viewBox="0 0 136 22" fill="none" xmlns="http://www.w3.org/2000/svg">
<path d="M135.543 12.8476C135.467 12.7379 134.275 10.9819 132.814 8.82866C134.366 8.23452 135.52 6.59213 135.52 4.7189C135.52 2.49751 133.628 0.510742 131.452 0.510742H126.65C125.938 0.510742 125.325 1.13894 125.325 1.83525V14.1721H127.32C128.035 14.1721 128.644 13.5439 128.644 12.8476V9.07086H129.567C131.391 11.7615 133.03 14.1721 133.03 14.1721H135.119C135.83 14.1721 136.016 13.5439 135.543 12.8514M128.644 6.89488V3.21274H131.062C131.819 3.21274 132.519 3.85986 132.519 4.73403C132.519 5.60821 131.811 6.34994 131.062 6.34994C130.313 6.34994 130.135 6.36129 129.893 6.36129C128.822 6.36129 128.644 6.88352 128.644 6.88352" fill="black"/>
<path d="M121.658 3.22409C122.377 3.22409 122.983 2.62239 122.983 1.89958V0.510742H115.653C114.937 0.510742 114.328 1.13894 114.328 1.83525V14.1721H121.658C122.377 14.1721 122.983 13.5439 122.983 12.8249V11.4474C122.983 11.4474 119.342 11.4474 118.926 11.4474C117.855 11.4474 117.677 11.9696 117.677 11.9696V8.63944C117.677 8.63944 121.223 8.63944 121.344 8.63944C122.063 8.63944 122.669 8.03774 122.669 7.31494V5.91474C122.669 5.91474 119.342 5.91474 118.926 5.91474C117.855 5.91474 117.677 6.43697 117.677 6.43697V3.22409C117.677 3.22409 121.412 3.22409 121.662 3.22409" fill="black"/>
<path d="M103.603 0.510742C102.888 0.510742 102.278 1.27896 102.278 1.97527V3.21653C102.278 3.21653 103.902 3.21653 105.836 3.21653V14.1721H107.879C108.594 14.1721 109.204 13.5439 109.204 12.8476C109.204 12.6281 109.192 6.46725 109.192 3.21653C110.46 3.21653 111.364 3.21653 111.444 3.21653C112.163 3.21653 112.768 2.61482 112.768 1.89202V0.510742H103.603Z" fill="black"/>
<path d="M92.2497 0.510742H90.9214C90.2592 0.510742 89.6953 1.13894 89.6953 1.83525V14.1721H91.8221C92.4843 14.1721 93.0482 13.525 93.0482 12.8476V6.38399L98.4484 14.1721H99.5951C100.257 14.1721 100.821 13.5439 100.821 12.8476V0.510742H98.4863C97.8278 0.510742 97.438 1.18057 97.438 1.83525V8.06801L92.2497 0.510742Z" fill="black"/>
<path d="M86.0255 3.22409C86.7445 3.22409 87.35 2.62239 87.35 1.89958V0.510742H80.0198C79.3046 0.510742 78.6953 1.13894 78.6953 1.83525V14.1721H86.0255C86.7445 14.1721 87.35 13.5439 87.35 12.8249V11.4474C87.35 11.4474 83.7095 11.4474 83.2933 11.4474C82.2223 11.4474 82.0444 11.9696 82.0444 11.9696V8.63944C82.0444 8.63944 85.5903 8.63944 85.7114 8.63944C86.4304 8.63944 87.0359 8.03774 87.0359 7.31494V5.91474C87.0359 5.91474 83.7095 5.91474 83.2933 5.91474C82.2223 5.91474 82.0444 6.43697 82.0444 6.43697V3.22409C82.0444 3.22409 85.7795 3.22409 86.0293 3.22409" fill="black"/>
<path d="M76.7005 14.4144C76.7005 14.4144 74.1953 18.0095 69.3249 18.0095C64.4545 18.0095 60.5188 14.1647 60.5188 9.06343C60.5188 3.96218 64.3031 0 69.3249 0C74.3467 0 76.6362 3.5951 76.6362 3.5951C76.6362 3.5951 75.2965 5.02935 74.0137 5.02935C73.3855 5.02935 72.9162 4.73796 72.375 4.40494C71.6485 3.95839 70.8273 3.44751 69.3249 3.44751C66.4677 3.44751 64.148 5.96786 64.148 9.06343C64.148 12.159 66.4715 14.562 69.3249 14.562C71.0203 14.562 71.815 14.0776 72.5189 13.6462C73.0184 13.3397 73.4914 13.0521 74.1726 13.0521C75.6182 13.0521 76.7005 14.4107 76.7005 14.4107V14.4144Z" fill="black"/>
<path d="M52.3299 0.514648C51.4444 0.514648 50.6875 1.298 50.6875 2.15704V17.4797H52.6591C53.5447 17.4797 54.3015 16.6964 54.3015 15.8373V0.514648H52.3299Z" fill="black"/>
<path d="M39.9245 0.514648C39.0276 0.514648 38.5697 0.927138 38.267 1.72563C37.9642 2.52412 31.3984 17.4835 31.3984 17.4835H33.8393C34.687 17.4835 35.319 17.1126 35.565 16.3936V16.3785H35.5725L40.1629 5.87323L42.2026 10.5128H41.0522C39.4288 10.5128 39.0011 11.6254 38.7892 12.2006L38.2405 13.5554H43.5309L45.2339 17.4911H46.5773C48.0381 17.4911 48.5679 16.3369 48.3143 15.7768C48.0797 15.2545 41.6691 0.526001 41.6691 0.526001H39.9094L39.9245 0.514648Z" fill="black"/>
<path d="M19.6552 0.514648C18.3383 0.514648 17.4565 1.32449 17.4565 2.53169V3.74645H20.5824C20.5824 3.74645 20.6883 14.0549 20.5673 15.1372C20.4499 16.2158 20.1737 17.9755 18.2437 18.8988C16.5786 19.6935 16.5445 20.4466 16.4348 21.1164C16.2985 21.983 16.4575 22.0966 17.0933 21.9414C19.5758 21.3321 22.2172 20.3369 23.5569 17.8809C24.2834 16.5488 24.5711 15.107 24.5711 12.9158V3.74645C25.8956 3.73131 26.8492 2.88741 26.8492 1.72941V0.514648H19.659H19.6552Z" fill="black"/>
<path d="M16.1817 14.4144C16.1817 14.4144 13.6765 18.0095 8.80609 18.0095C3.93568 18.0095 0 14.1647 0 9.06343C0 3.96218 3.78431 0 8.80609 0C13.8279 0 16.1174 3.5951 16.1174 3.5951C16.1174 3.5951 14.7777 5.02935 13.4949 5.02935C12.8667 5.02935 12.3974 4.73796 11.8562 4.40494C11.1297 3.95839 10.3085 3.44751 8.80609 3.44751C5.94894 3.44751 3.62916 5.96786 3.62916 9.06343C3.62916 12.159 5.95272 14.562 8.80609 14.562C10.5015 14.562 11.2962 14.0776 12.0001 13.6462C12.4996 13.3397 12.9726 13.0521 13.6538 13.0521C15.0994 13.0521 16.1817 14.4107 16.1817 14.4107V14.4144Z" fill="black"/>
</svg>
